<?xml version="1.0" standalone="no"?>
<!DOCTYPE svg PUBLIC "-//W3C//DTD SVG 20010904//EN"
 "http://www.w3.org/TR/2001/REC-SVG-20010904/DTD/svg10.dtd">
<svg version="1.0" xmlns="http://www.w3.org/2000/svg"
 width="500.000000pt" height="500.000000pt" viewBox="0 0 500.000000 500.000000"
 preserveAspectRatio="xMidYMid meet">

<g transform="translate(0.000000,500.000000) scale(0.100000,-0.100000)"
fill="#000000" stroke="none">
<path d="M760 2500 l0 -480 1740 0 1740 0 0 480 0 480 -1740 0 -1740 0 0 -480z
m3450 0 l0 -450 -1715 0 -1715 0 0 450 0 450 1715 0 1715 0 0 -450z"/>
<path d="M850 2500 l0 -390 820 0 820 0 0 390 0 390 -820 0 -820 0 0 -390z
m447 123 c24 -16 43 -43 43 -62 0 -19 -18 -12 -48 19 -57 57 -153 31 -168 -46
-19 -103 94 -167 168 -94 16 17 36 30 44 30 12 0 12 -4 -1 -30 -41 -80 -188
-81 -230 0 -23 44 -19 111 8 151 38 57 123 72 184 32z m173 -98 l0 -115 65 0
c51 0 65 -3 65 -15 0 -12 -16 -15 -80 -15 l-80 0 0 130 c0 109 2 130 15 130
12 0 15 -19 15 -115z m240 -15 c0 -109 -2 -130 -15 -130 -13 0 -15 21 -15 130
0 109 2 130 15 130 13 0 15 -21 15 -130z m146 30 c21 -55 41 -100 45 -100 3 0
24 45 45 100 29 73 44 100 56 100 16 0 16 -4 -3 -52 -12 -29 -35 -88 -52 -130
-20 -52 -35 -78 -46 -78 -11 0 -32 40 -68 130 -45 113 -49 130 -33 130 14 0
27 -24 56 -100z m394 85 c0 -12 -13 -15 -60 -15 l-60 0 0 -40 0 -40 55 0 c42
0 55 -3 55 -15 0 -12 -13 -15 -55 -15 l-55 0 0 -45 0 -45 65 0 c51 0 65 -3 65
-15 0 -12 -16 -15 -85 -15 l-85 0 0 130 0 130 80 0 c64 0 80 -3 80 -15z"/>
<path d="M3705 2643 c-80 -21 -119 -115 -80 -197 48 -102 224 -87 255 22 17
62 17 62 -70 62 -79 0 -80 0 -80 -25 0 -22 4 -25 36 -25 41 0 42 -20 1 -34
-58 -21 -108 52 -70 102 24 33 56 39 88 18 26 -17 95 -22 95 -7 0 18 -45 64
-76 77 -33 14 -62 16 -99 7z"/>
<path d="M3990 2632 c-73 -36 -100 -123 -60 -189 28 -46 61 -64 118 -65 92 0
146 52 144 140 -1 100 -109 161 -202 114z m105 -77 c27 -26 31 -46 14 -76 -23
-45 -103 -40 -115 7 -9 36 4 74 29 84 35 14 46 12 72 -15z"/>
<path d="M2560 2510 l0 -130 40 0 40 0 0 63 0 62 26 -32 c35 -45 66 -44 96 5
l23 37 3 -67 3 -68 34 0 35 0 0 130 0 130 -30 0 c-25 0 -37 -10 -74 -61 l-44
-61 -43 61 c-38 54 -47 61 -76 61 l-33 0 0 -130z"/>
<path d="M2920 2541 c0 -84 3 -102 20 -124 27 -34 79 -48 125 -36 61 17 75 47
75 160 l0 99 -35 0 -35 0 0 -79 c0 -98 -5 -111 -40 -111 -35 0 -40 13 -40 111
l0 79 -35 0 -35 0 0 -99z"/>
<path d="M3200 2510 l0 -130 70 0 c116 0 166 33 177 118 7 49 -17 96 -60 122
-24 15 -50 20 -109 20 l-78 0 0 -130z m154 44 c39 -38 7 -104 -51 -104 l-33 0
0 60 0 60 34 0 c19 0 42 -7 50 -16z"/>
<path d="M3490 2510 l0 -130 40 0 40 0 0 130 0 130 -40 0 -40 0 0 -130z"/>
</g>
</svg>
